<?xml version="1.0" encoding="iso-8859-1"?>
<!-- Uploaded to: SVG Repo, www.svgrepo.com, Generator: SVG Repo Mixer Tools -->
<svg fill="#F5A405" height="800px" width="800px" version="1.1" id="Layer_1" xmlns="http://www.w3.org/2000/svg" xmlns:xlink="http://www.w3.org/1999/xlink" 
	 viewBox="0 0 512 512" xml:space="preserve">
<g>
	<g>
		<path d="M217.592,177.33c-9.281-4.843-15.688-11.31-15.542-21.778c0-29.971-24.296-54.267-54.267-54.267
			s-54.267,24.297-54.267,54.267c0.297,10.065-4.255,17.641-12.911,22.785c-20.12,11.958-35.002,41.52-35.002,51.807
			c0,29.971,24.296,54.267,54.267,54.267c3.697,0,7.307-0.37,10.796-1.074c24.648-4.978,49.649-4.931,74.303,0.015
			c3.467,0.695,7.054,1.061,10.726,1.061c29.971,0,54.268-24.296,54.268-54.267C249.964,213.29,237.001,187.458,217.592,177.33z"/>
	</g>
</g>
<g>
	<g>
		<path d="M209.187,0.451c-18.792-4.414-41.67,24.543-46.084,43.337c-4.415,18.791,7.24,37.605,26.034,42.019
			c18.792,4.414,37.606-7.241,42.02-26.034C235.571,40.981,227.979,4.866,209.187,0.451z"/>
	</g>
</g>
<g>
	<g>
		<path d="M274.937,83.318c-17.01-3.996-37.717,22.216-41.713,39.225c-3.996,17.01,6.555,34.038,23.565,38.034
			c17.01,3.996,34.038-6.555,38.034-23.565C298.819,120.002,291.947,87.313,274.937,83.318z"/>
	</g>
</g>
<g>
	<g>
		<path d="M132.476,43.787c-4.413-18.792-27.291-47.75-46.083-43.336C67.6,4.866,60.008,40.98,64.422,59.772
			c4.414,18.793,23.228,30.449,42.02,26.035C125.234,81.393,136.89,62.58,132.476,43.787z"/>
	</g>
</g>
<g>
	<g>
		<path d="M63.819,122.543c-3.996-17.01-24.702-43.221-41.713-39.225C5.096,87.314-1.775,120.002,2.22,137.013
			c3.996,17.01,21.024,27.56,38.034,23.565C57.265,156.582,67.814,139.554,63.819,122.543z"/>
	</g>
</g>
<g>
	<g>
		<path d="M432.548,404.918c-9.281-4.843-15.688-11.31-15.542-21.778c0-29.971-24.296-54.267-54.267-54.267
			s-54.267,24.296-54.267,54.267c0.297,10.065-4.255,17.641-12.911,22.785c-20.12,11.958-35.002,41.52-35.002,51.807
			c0,29.971,24.296,54.267,54.267,54.267c3.697,0,7.307-0.37,10.796-1.074c24.648-4.978,49.649-4.931,74.303,0.015
			c3.467,0.695,7.054,1.061,10.726,1.061c29.971,0,54.267-24.296,54.267-54.267C464.92,440.878,451.957,415.046,432.548,404.918z"/>
	</g>
</g>
<g>
	<g>
		<path d="M424.143,228.039c-18.792-4.414-41.67,24.543-46.084,43.337c-4.414,18.791,7.242,37.605,26.034,42.019
			c18.792,4.414,37.606-7.241,42.02-26.034C450.527,268.568,442.935,232.453,424.143,228.039z"/>
	</g>
</g>
<g>
	<g>
		<path d="M489.893,310.906c-17.01-3.996-37.717,22.216-41.713,39.225c-3.996,17.009,6.555,34.038,23.565,38.034
			c17.01,3.996,34.038-6.555,38.034-23.565C513.775,347.59,506.903,314.901,489.893,310.906z"/>
	</g>
</g>
<g>
	<g>
		<path d="M347.433,271.374c-4.414-18.792-27.291-47.751-46.084-43.336c-18.792,4.415-26.384,40.53-21.97,59.323
			c4.414,18.792,23.227,30.448,42.02,26.034C340.191,308.979,351.847,290.167,347.433,271.374z"/>
	</g>
</g>
<g>
	<g>
		<path d="M278.775,350.131c-3.996-17.01-24.703-43.221-41.713-39.225c-17.01,3.996-23.882,36.684-19.887,53.694
			c3.995,17.01,21.024,27.56,38.034,23.565C272.221,384.169,282.77,367.141,278.775,350.131z"/>
	</g>
</g>
</svg>